<svg width="192" height="37" viewBox="0 0 192 37" fill="none" xmlns="http://www.w3.org/2000/svg">
<path d="M160.148 2.84375V5.77344C160.148 6.11198 160.138 6.44531 160.117 6.77344C160.102 7.09635 160.086 7.34896 160.07 7.53125H160.148C160.383 7.15625 160.708 6.84115 161.125 6.58594C161.547 6.32552 162.086 6.19531 162.742 6.19531C163.768 6.19531 164.594 6.57292 165.219 7.32812C165.844 8.07812 166.156 9.1901 166.156 10.6641C166.156 11.6432 166.013 12.4661 165.727 13.1328C165.44 13.7995 165.036 14.3047 164.516 14.6484C164 14.987 163.393 15.1562 162.695 15.1562C162.039 15.1562 161.508 15.0365 161.102 14.7969C160.701 14.5521 160.385 14.2682 160.156 13.9453H160.023L159.688 15H158.312V2.84375H160.148ZM162.258 7.6875C161.737 7.6875 161.323 7.79167 161.016 8C160.714 8.20833 160.495 8.52083 160.359 8.9375C160.224 9.34896 160.154 9.8724 160.148 10.5078V10.6719C160.148 11.6354 160.299 12.3724 160.602 12.8828C160.909 13.3932 161.466 13.6484 162.273 13.6484C162.914 13.6484 163.406 13.3906 163.75 12.875C164.094 12.3542 164.266 11.6094 164.266 10.6406C164.266 9.66146 164.094 8.92448 163.75 8.42969C163.411 7.9349 162.914 7.6875 162.258 7.6875ZM171.727 6.1875C172.497 6.1875 173.159 6.34635 173.711 6.66406C174.263 6.98177 174.688 7.43229 174.984 8.01562C175.281 8.59896 175.43 9.29688 175.43 10.1094V11.0938H169.656C169.677 11.9323 169.901 12.5781 170.328 13.0312C170.76 13.4844 171.365 13.7109 172.141 13.7109C172.693 13.7109 173.188 13.6589 173.625 13.5547C174.068 13.4453 174.523 13.2865 174.992 13.0781V14.5703C174.56 14.7734 174.12 14.9219 173.672 15.0156C173.224 15.1094 172.688 15.1562 172.062 15.1562C171.214 15.1562 170.466 14.9922 169.82 14.6641C169.18 14.3307 168.677 13.8359 168.312 13.1797C167.953 12.5234 167.773 11.7083 167.773 10.7344C167.773 9.76562 167.938 8.94271 168.266 8.26562C168.594 7.58854 169.055 7.07292 169.648 6.71875C170.242 6.36458 170.935 6.1875 171.727 6.1875ZM171.727 7.57031C171.148 7.57031 170.68 7.75781 170.32 8.13281C169.966 8.50781 169.758 9.05729 169.695 9.78125H173.633C173.628 9.34896 173.555 8.96615 173.414 8.63281C173.279 8.29948 173.07 8.03906 172.789 7.85156C172.513 7.66406 172.159 7.57031 171.727 7.57031ZM180.719 13.6719C180.958 13.6719 181.195 13.651 181.43 13.6094C181.664 13.5625 181.878 13.5078 182.07 13.4453V14.8359C181.867 14.9245 181.604 15 181.281 15.0625C180.958 15.125 180.622 15.1562 180.273 15.1562C179.784 15.1562 179.344 15.0755 178.953 14.9141C178.562 14.7474 178.253 14.4635 178.023 14.0625C177.794 13.6615 177.68 13.1068 177.68 12.3984V7.75H176.5V6.92969L177.766 6.28125L178.367 4.42969H179.523V6.35156H182V7.75H179.523V12.375C179.523 12.8125 179.633 13.138 179.852 13.3516C180.07 13.5651 180.359 13.6719 180.719 13.6719ZM187.219 6.1875C188.312 6.1875 189.138 6.42969 189.695 6.91406C190.258 7.39844 190.539 8.15365 190.539 9.17969V15H189.234L188.883 13.7734H188.82C188.576 14.0859 188.323 14.3438 188.062 14.5469C187.802 14.75 187.5 14.901 187.156 15C186.818 15.1042 186.404 15.1562 185.914 15.1562C185.398 15.1562 184.938 15.0625 184.531 14.875C184.125 14.6823 183.805 14.3906 183.57 14C183.336 13.6094 183.219 13.1146 183.219 12.5156C183.219 11.625 183.549 10.9557 184.211 10.5078C184.878 10.0599 185.883 9.8125 187.227 9.76562L188.727 9.71094V9.25781C188.727 8.65885 188.586 8.23177 188.305 7.97656C188.029 7.72135 187.638 7.59375 187.133 7.59375C186.701 7.59375 186.281 7.65625 185.875 7.78125C185.469 7.90625 185.073 8.0599 184.688 8.24219L184.094 6.94531C184.516 6.72135 184.995 6.53906 185.531 6.39844C186.073 6.25781 186.635 6.1875 187.219 6.1875ZM188.719 10.8672L187.602 10.9062C186.685 10.9375 186.042 11.0938 185.672 11.375C185.302 11.6562 185.117 12.0417 185.117 12.5312C185.117 12.9583 185.245 13.2708 185.5 13.4688C185.755 13.6615 186.091 13.7578 186.508 13.7578C187.143 13.7578 187.669 13.5781 188.086 13.2188C188.508 12.8542 188.719 12.3203 188.719 11.6172V10.8672Z" fill="#3840C6"/>
<g clip-path="url(#clip0_5130_515)">
<path fill-rule="evenodd" clip-rule="evenodd" d="M3.87819 0C1.73633 0 0 1.73633 0 3.87819V32.1514C0 34.2933 1.73633 36.0296 3.87819 36.0296H28.7737C30.9155 36.0296 32.6519 34.2933 32.6519 32.1514V3.87819C32.6519 1.73633 30.9155 0 28.7737 0H3.87819ZM8.7572 5.37942C7.72081 5.37942 6.88066 6.21958 6.88066 7.25597C6.88066 8.29236 7.72081 9.13251 8.7572 9.13251H23.7695C24.8059 9.13251 25.6461 8.29236 25.6461 7.25597C25.6461 6.21958 24.8059 5.37942 23.7695 5.37942H8.7572ZM6.88066 13.8864C6.88066 12.8501 7.72081 12.0099 8.7572 12.0099H23.7695C24.8059 12.0099 25.6461 12.8501 25.6461 13.8864C25.6461 14.9228 24.8059 15.763 23.7695 15.763H8.7572C7.72081 15.763 6.88066 14.9228 6.88066 13.8864ZM6.88066 25.2708C6.88066 26.3071 7.72081 27.1473 8.7572 27.1473C9.79359 27.1473 10.6337 26.3071 10.6337 25.2708V21.893C10.6337 20.8567 9.79359 20.0165 8.7572 20.0165C7.72081 20.0165 6.88066 20.8567 6.88066 21.893V25.2708Z" fill="url(#paint0_linear_5130_515)"/>
<path d="M51.4258 29.3992V6.6532H54.8576V26.4449H65.1645V29.3992H51.4258ZM75.9987 29.7435C74.3994 29.7435 73.0038 29.3769 71.8117 28.6439C70.6196 27.911 69.6941 26.8854 69.035 25.5674C68.3761 24.2494 68.0466 22.7094 68.0466 20.9472C68.0466 19.1775 68.3761 17.63 69.035 16.3047C69.6941 14.9793 70.6196 13.9501 71.8117 13.2171C73.0038 12.4841 74.3994 12.1176 75.9987 12.1176C77.5981 12.1176 78.9938 12.4841 80.1859 13.2171C81.3779 13.9501 82.3035 14.9793 82.9625 16.3047C83.6215 17.63 83.9509 19.1775 83.9509 20.9472C83.9509 22.7094 83.6215 24.2494 82.9625 25.5674C82.3035 26.8854 81.3779 27.911 80.1859 28.6439C78.9938 29.3769 77.5981 29.7435 75.9987 29.7435ZM76.0099 26.9558C77.0465 26.9558 77.9053 26.6818 78.5866 26.1339C79.2678 25.5859 79.7712 24.8567 80.097 23.9459C80.4303 23.0352 80.5968 22.0319 80.5968 20.9361C80.5968 19.8477 80.4303 18.8481 80.097 17.9374C79.7712 17.0192 79.2678 16.2825 78.5866 15.7272C77.9053 15.1719 77.0465 14.8941 76.0099 14.8941C74.9659 14.8941 74.0996 15.1719 73.411 15.7272C72.7298 16.2825 72.2225 17.0192 71.8894 17.9374C71.5636 18.8481 71.4007 19.8477 71.4007 20.9361C71.4007 22.0319 71.5636 23.0352 71.8894 23.9459C72.2225 24.8567 72.7298 25.5859 73.411 26.1339C74.0996 26.6818 74.9659 26.9558 76.0099 26.9558ZM94.8436 29.7435C93.1925 29.7435 91.7708 29.3695 90.5787 28.6218C89.394 27.8665 88.4833 26.8262 87.8466 25.5008C87.2098 24.1755 86.8914 22.6576 86.8914 20.9472C86.8914 19.2146 87.2172 17.6855 87.8688 16.3602C88.5203 15.0275 89.4384 13.9871 90.6231 13.2393C91.8079 12.4915 93.2035 12.1176 94.8103 12.1176C96.106 12.1176 97.2611 12.3582 98.2754 12.8394C99.2899 13.3133 100.108 13.9797 100.73 14.8387C101.359 15.6975 101.733 16.7009 101.852 17.8484H98.6198C98.4421 17.0488 98.0349 16.3602 97.3981 15.7827C96.7687 15.2051 95.9246 14.9164 94.8658 14.9164C93.9402 14.9164 93.1295 15.1607 92.4335 15.6494C91.7449 16.1306 91.2081 16.8193 90.8231 17.7152C90.438 18.6037 90.2456 19.6552 90.2456 20.8694C90.2456 22.1133 90.4344 23.1869 90.8119 24.0903C91.1896 24.9937 91.7227 25.6934 92.4112 26.1894C93.1073 26.6854 93.9255 26.9335 94.8658 26.9335C95.4951 26.9335 96.0654 26.8188 96.5762 26.5892C97.0945 26.3523 97.5277 26.0154 97.8756 25.5785C98.231 25.1417 98.4791 24.616 98.6198 24.0015H101.852C101.733 25.1046 101.374 26.0895 100.774 26.9558C100.175 27.822 99.3713 28.5033 98.3644 28.9993C97.3648 29.4954 96.1912 29.7435 94.8436 29.7435ZM108.457 23.6127L108.435 19.5588H109.013L115.81 12.3397H119.786L112.034 20.5584H111.512L108.457 23.6127ZM105.403 29.3992V6.6532H108.724V29.3992H105.403ZM116.176 29.3992L110.068 21.2915L112.356 18.9702L120.252 29.3992H116.176ZM129.463 29.7435C127.781 29.7435 126.334 29.3844 125.119 28.6662C123.913 27.9405 122.98 26.9224 122.321 25.6119C121.669 24.294 121.344 22.7501 121.344 20.9805C121.344 19.2331 121.669 17.6931 122.321 16.3602C122.98 15.0275 123.898 13.9871 125.075 13.2393C126.26 12.4915 127.645 12.1176 129.229 12.1176C130.192 12.1176 131.124 12.2768 132.029 12.5951C132.932 12.9135 133.742 13.4133 134.461 14.0945C135.179 14.7757 135.745 15.6605 136.159 16.7489C136.574 17.8299 136.781 19.1442 136.781 20.6918V21.869H123.221V19.3812H133.527C133.527 18.5075 133.35 17.7337 132.994 17.0599C132.639 16.3787 132.139 15.8419 131.494 15.4495C130.858 15.057 130.111 14.8608 129.251 14.8608C128.318 14.8608 127.504 15.0904 126.808 15.5494C126.119 16.0012 125.586 16.5934 125.209 17.3265C124.838 18.0521 124.653 18.8406 124.653 19.6922V21.6358C124.653 22.776 124.853 23.746 125.253 24.5457C125.661 25.3453 126.226 25.9562 126.952 26.3782C127.677 26.7929 128.526 27.0002 129.495 27.0002C130.124 27.0002 130.699 26.9114 131.217 26.7336C131.736 26.5486 132.184 26.2746 132.562 25.9118C132.938 25.5489 133.227 25.101 133.427 24.5678L136.571 25.1343C136.318 26.0598 135.867 26.8706 135.215 27.5667C134.572 28.2552 133.76 28.7921 132.783 29.177C131.813 29.5547 130.706 29.7435 129.463 29.7435ZM140.466 29.3992V12.3397H143.676V15.0496H143.853C144.165 14.1315 144.713 13.4097 145.497 12.884C146.289 12.3508 147.186 12.0843 148.186 12.0843C148.392 12.0843 148.637 12.0916 148.917 12.1065C149.206 12.1213 149.433 12.1398 149.596 12.162V15.3385C149.462 15.3015 149.225 15.2607 148.885 15.2163C148.545 15.1645 148.203 15.1386 147.863 15.1386C147.078 15.1386 146.378 15.3051 145.764 15.6384C145.157 15.9641 144.675 16.4195 144.32 17.0044C143.965 17.582 143.787 18.2409 143.787 18.9814V29.3992H140.466Z" fill="#101123"/>
</g>
<defs>
<linearGradient id="paint0_linear_5130_515" x1="16.3259" y1="0" x2="16.3259" y2="36.0296" gradientUnits="userSpaceOnUse">
<stop stop-color="#5EC8CE"/>
<stop offset="0.5" stop-color="#2D95D0"/>
<stop offset="1" stop-color="#4F46E6"/>
</linearGradient>
<clipPath id="clip0_5130_515">
<rect width="152" height="36.0296" fill="white"/>
</clipPath>
</defs>
</svg>
