<svg width="154" height="154" viewBox="0 0 154 154" fill="none" xmlns="http://www.w3.org/2000/svg">
<path d="M0 69.7524C0 45.3367 -8.10623e-06 33.1289 4.75187 23.8034C8.9306 15.6004 15.6007 8.93125 23.803 4.75162C33.1285 -1.43051e-06 45.3365 0 69.7523 0H84.1131C108.529 0 120.737 -1.43051e-06 130.063 4.75162C138.265 8.93125 144.935 15.6004 149.114 23.8034C153.866 33.1289 153.865 45.3367 153.865 69.7524V84.1131C153.865 108.529 153.866 120.737 149.114 130.063C144.935 138.265 138.265 144.935 130.063 149.114C120.737 153.866 108.529 153.865 84.1131 153.865H69.7523C45.3365 153.865 33.1285 153.866 23.803 149.114C15.6007 144.935 8.9306 138.265 4.75187 130.063C-8.10623e-06 120.737 0 108.529 0 84.1131V69.7524Z" fill="#0052FF"/>
<path d="M77.1084 104.14C62.1726 104.14 50.0617 92.0441 50.0617 77.0933C50.0617 62.1425 62.1726 50.0467 77.1084 50.0467C90.4965 50.0467 101.616 59.8135 103.749 72.5856H130.991C128.692 44.8176 105.447 23 77.0933 23C47.2218 23 23 47.2218 23 77.0933C23 106.965 47.2218 131.187 77.0933 131.187C105.447 131.187 128.692 109.369 130.991 81.6011H103.734C101.586 94.3732 90.4965 104.14 77.1084 104.14Z" fill="white"/>
</svg>
