<svg width="154" height="154" viewBox="0 0 154 154" fill="none" xmlns="http://www.w3.org/2000/svg">
<path fill-rule="evenodd" clip-rule="evenodd" d="M36.9063 19.0039C30.0186 19.0039 24.4351 24.5875 24.4351 31.4752V122.395C24.4351 129.282 30.0186 134.866 36.9063 134.866H116.964C123.851 134.866 129.435 129.282 129.435 122.395V31.4752C129.435 24.5875 123.851 19.0039 116.964 19.0039H36.9063ZM52.596 36.3028C49.2632 36.3028 46.5615 39.0045 46.5615 42.3372C46.5615 45.67 49.2632 48.3717 52.596 48.3717H100.872C104.205 48.3717 106.906 45.67 106.906 42.3372C106.906 39.0045 104.205 36.3028 100.872 36.3028H52.596ZM46.5615 63.6591C46.5615 60.3263 49.2632 57.6246 52.596 57.6246H100.872C104.205 57.6246 106.906 60.3263 106.906 63.6591C106.906 66.9918 104.205 69.6936 100.872 69.6936H52.596C49.2632 69.6936 46.5615 66.9918 46.5615 63.6591ZM46.5615 100.268C46.5615 103.601 49.2632 106.303 52.596 106.303C55.9287 106.303 58.6305 103.601 58.6305 100.268V89.4062C58.6305 86.0735 55.9287 83.3717 52.596 83.3717C49.2632 83.3717 46.5615 86.0735 46.5615 89.4062V100.268Z" fill="url(#paint0_linear_514_412)"/>
<defs>
<linearGradient id="paint0_linear_514_412" x1="76.9351" y1="19.0039" x2="76.9351" y2="134.866" gradientUnits="userSpaceOnUse">
<stop stop-color="#5EC8CE"/>
<stop offset="0.5" stop-color="#2D95D0"/>
<stop offset="1" stop-color="#4F46E6"/>
</linearGradient>
</defs>
</svg>
