<svg width="72" height="80" viewBox="0 0 72 80" fill="none" xmlns="http://www.w3.org/2000/svg">
<path d="M44.6411 36.656L50.5161 26.6868L66.3519 51.3516L66.3595 56.0852L66.3079 23.513C66.2703 22.7168 65.8475 21.9885 65.1731 21.5589L36.6627 5.15926C35.9961 4.83135 35.15 4.83514 34.4843 5.16964C34.3943 5.21446 34.3096 5.26356 34.2292 5.31712L34.1297 5.37957L6.45601 21.4162L6.34873 21.465C6.21065 21.5284 6.07092 21.6092 5.94008 21.7029C5.41526 22.0791 5.06692 22.6356 4.95421 23.2598C4.93724 23.3543 4.92471 23.4506 4.91895 23.548L4.96245 50.0911L19.7127 27.2288C21.5699 24.1973 25.6159 23.2209 29.372 23.2739L33.7803 23.3903L7.80538 65.0468L10.8673 66.8094L37.1532 23.4326L48.7718 23.3904L22.5536 67.8619L33.4795 74.1462L34.7848 74.8969C35.337 75.1214 35.9881 75.1327 36.5448 74.9315L65.4558 58.1771L59.9285 61.3801L44.6411 36.656ZM46.8824 68.9405L35.8473 51.6209L42.5837 40.19L57.0763 63.033L46.8824 68.9405Z" fill="#2D374B"/>
<path d="M35.8477 51.6203L46.8826 68.9401L57.0767 63.0325L42.5838 40.1895L35.8477 51.6203Z" fill="#28A0F0"/>
<path d="M66.3595 56.0849L66.3519 51.3513L50.5161 26.6865L44.6411 36.6557L59.9283 61.3796L65.4557 58.1766C65.9978 57.7362 66.3259 57.0901 66.3603 56.3929L66.3595 56.0849Z" fill="#28A0F0"/>
<path d="M0 60.5484L7.80542 65.0462L33.7802 23.3899L29.3719 23.2735C25.6157 23.2205 21.5696 24.1969 19.7125 27.2284L4.96232 50.0907L0 57.7152V60.5484Z" fill="white"/>
<path d="M48.7722 23.3896L37.1536 23.4318L10.8677 66.8086L20.0554 72.0985L22.554 67.8611L48.7722 23.3896Z" fill="white"/>
<path d="M71.2558 23.3301C71.1586 20.9003 69.843 18.6759 67.7822 17.3809L38.8981 0.770384C36.8596 -0.256025 34.3131 -0.257344 32.271 0.769725C32.0296 0.891497 4.18193 17.042 4.18193 17.042C3.79651 17.2269 3.42526 17.447 3.0761 17.697C1.2365 19.0154 0.115181 21.0643 0 23.3151V57.7153L4.96232 50.0908L4.91899 23.5476C4.92475 23.4506 4.93695 23.355 4.95425 23.2608C5.06646 22.6362 5.41514 22.0791 5.94012 21.7026C6.07112 21.6089 34.3945 5.21415 34.4845 5.16916C35.1502 4.83483 35.9963 4.83087 36.6629 5.15878L65.1733 21.5581C65.8477 21.9877 66.2706 22.716 66.3081 23.5122V56.3926C66.2737 57.0898 65.998 57.7359 65.4559 58.1763L59.9285 61.3793L57.0765 63.0322L46.8826 68.9399L36.5449 74.9307C35.9881 75.1319 35.3371 75.1206 34.7849 74.8961L22.5537 67.8612L20.0551 72.0988L31.0469 78.4273C31.4104 78.6341 31.7342 78.8174 31.9999 78.9665C32.4114 79.1972 32.6919 79.3516 32.7909 79.3997C33.5721 79.7792 34.6962 80 35.7091 80C36.6378 80 37.5434 79.8295 38.4003 79.4938L68.4272 62.1045C70.1506 60.7691 71.1645 58.7553 71.2558 56.5738V23.3301Z" fill="#96BEDC"/>
</svg>
