<svg width="154" height="154" viewBox="0 0 154 154" fill="none" xmlns="http://www.w3.org/2000/svg">
<path d="M0 69.7524C0 45.3367 -8.10623e-06 33.1289 4.75187 23.8034C8.9306 15.6004 15.6007 8.93125 23.803 4.75162C33.1285 -1.43051e-06 45.3365 0 69.7523 0H84.1131C108.529 0 120.737 -1.43051e-06 130.063 4.75162C138.265 8.93125 144.935 15.6004 149.114 23.8034C153.866 33.1289 153.865 45.3367 153.865 69.7524V84.1131C153.865 108.529 153.866 120.737 149.114 130.063C144.935 138.265 138.265 144.935 130.063 149.114C120.737 153.866 108.529 153.865 84.1131 153.865H69.7523C45.3365 153.865 33.1285 153.866 23.803 149.114C15.6007 144.935 8.9306 138.265 4.75187 130.063C-8.10623e-06 120.737 0 108.529 0 84.1131V69.7524Z" fill="#3B99FC"/>
<path d="M41.5756 54.5021C61.1396 35.3469 92.8604 35.3469 112.425 54.5021L114.779 56.8077C115.011 57.033 115.196 57.3025 115.322 57.6004C115.448 57.8982 115.513 58.2183 115.513 58.5417C115.513 58.8651 115.448 59.1853 115.322 59.4831C115.196 59.781 115.011 60.0505 114.779 60.2757L106.725 68.1621C106.488 68.3924 106.17 68.5212 105.839 68.5212C105.509 68.5212 105.191 68.3924 104.954 68.1621L101.713 64.9897C88.0644 51.6265 65.9356 51.6265 52.2868 64.9897L48.8168 68.3873C48.5795 68.6176 48.2619 68.7464 47.9312 68.7464C47.6006 68.7464 47.2829 68.6176 47.0456 68.3873L38.9912 60.5009C38.7591 60.2757 38.5746 60.0062 38.4487 59.7083C38.3227 59.4105 38.2577 59.0903 38.2577 58.7669C38.2577 58.4435 38.3227 58.1234 38.4487 57.8256C38.5746 57.5277 38.7591 57.2582 38.9912 57.0329L41.5756 54.5021ZM129.082 70.8117L136.251 77.8305C136.483 78.0558 136.668 78.3253 136.794 78.6232C136.92 78.921 136.985 79.2411 136.985 79.5645C136.985 79.888 136.92 80.2081 136.794 80.5059C136.668 80.8038 136.483 81.0733 136.251 81.2985L103.927 112.947C102.949 113.905 101.363 113.905 100.385 112.947L77.4432 90.4853C77.3246 90.3702 77.1657 90.3059 77.0004 90.3059C76.8351 90.3059 76.6763 90.3702 76.5576 90.4853L53.616 112.948C52.6376 113.905 51.0516 113.905 50.0732 112.948L17.7488 81.2985C17.5167 81.0733 17.3321 80.8037 17.2061 80.5059C17.0801 80.208 17.0151 79.8878 17.0151 79.5643C17.0151 79.2409 17.0801 78.9207 17.2061 78.6228C17.3321 78.3249 17.5167 78.0554 17.7488 77.8301L24.9176 70.8113C25.8956 69.8537 27.4816 69.8537 28.46 70.8113L51.402 93.2734C51.5207 93.3884 51.6795 93.4528 51.8448 93.4528C52.0101 93.4528 52.169 93.3884 52.2876 93.2734L75.228 70.8117C76.2064 69.8541 77.792 69.8537 78.7704 70.8117L101.712 93.2737C101.831 93.3888 101.99 93.4532 102.155 93.4532C102.321 93.4532 102.479 93.3888 102.598 93.2737L125.54 70.8117C126.518 69.8541 128.104 69.8541 129.082 70.8117Z" fill="white"/>
</svg>
