<svg width="80" height="80" viewBox="0 0 80 80" fill="none" xmlns="http://www.w3.org/2000/svg">
<path d="M64.6872 13.6885H15.2598V58.6419H64.6872V13.6885Z" fill="white"/>
<path fill-rule="evenodd" clip-rule="evenodd" d="M80 40C80 62.0916 62.0916 80 40 80C17.9086 80 0 62.0916 0 40C0 17.9086 17.9086 0 40 0C62.0916 0 80 17.9086 80 40ZM28.6651 55.918H20.9023C19.2711 55.918 18.4653 55.918 17.974 55.6037C17.4434 55.2597 17.1191 54.6897 17.0798 54.0607C17.0503 53.4812 17.4532 52.7735 18.259 51.3585L37.4265 17.5731C38.2421 16.1384 38.6548 15.4211 39.1756 15.1558C39.7357 14.8708 40.4039 14.8708 40.964 15.1558C41.4848 15.4211 41.8975 16.1384 42.7131 17.5731L46.6535 24.4516L46.6736 24.4867C47.5545 26.0258 48.0012 26.8063 48.1963 27.6255C48.4124 28.5197 48.4124 29.4631 48.1963 30.3573C47.9997 31.1827 47.5575 31.9688 46.6633 33.5312L36.5951 51.329L36.5691 51.3746C35.6823 52.9264 35.233 53.7129 34.6102 54.3063C33.9321 54.955 33.1165 55.4264 32.2223 55.6921C31.4067 55.918 30.4929 55.918 28.6651 55.918ZM48.269 55.918H59.3923C61.0333 55.918 61.8589 55.918 62.3505 55.5941C62.881 55.2501 63.2149 54.67 63.2447 54.0415C63.273 53.4807 62.8788 52.8005 62.1065 51.4677C62.0799 51.4224 62.0533 51.3762 62.0261 51.3292L56.4543 41.7976L56.3909 41.6903C55.608 40.3663 55.2128 39.6977 54.7052 39.4393C54.1454 39.1542 53.4865 39.1542 52.9267 39.4393C52.4157 39.7046 52.003 40.4022 51.1874 41.8074L45.6355 51.3391L45.6165 51.3719C44.8037 52.7748 44.3975 53.4759 44.4268 54.0511C44.4662 54.6802 44.7904 55.2597 45.321 55.6037C45.8026 55.918 46.628 55.918 48.269 55.918Z" fill="#E84142"/>
</svg>
