<svg width="338" height="338" viewBox="0 0 338 338" fill="none" xmlns="http://www.w3.org/2000/svg">
<path d="M0 253.752C0 229.337 -8.25399e-06 217.129 4.75187 207.803C8.9306 199.6 15.6007 192.931 23.803 188.752C33.1285 184 45.3365 184 69.7524 184H84.1131C108.529 184 120.737 184 130.063 188.752C138.265 192.931 144.935 199.6 149.114 207.803C153.866 217.129 153.865 229.337 153.865 253.752V268.113C153.865 292.529 153.866 304.737 149.114 314.063C144.935 322.265 138.265 328.935 130.063 333.114C120.737 337.866 108.529 337.865 84.1131 337.865H69.7524C45.3365 337.865 33.1285 337.866 23.803 333.114C15.6007 328.935 8.9306 322.265 4.75187 314.063C-8.25399e-06 304.737 0 292.529 0 268.113V253.752Z" fill="url(#paint0_linear_482_332)"/>
<path d="M25.644 232.724H33.3373C72.9936 232.724 105.141 264.872 105.141 304.528V312.222H120.528C124.777 312.222 128.221 308.778 128.221 304.528C128.221 252.125 85.7401 209.645 33.3373 209.645C29.0881 209.645 25.644 213.089 25.644 217.338V232.724Z" fill="url(#paint1_radial_482_332)"/>
<path d="M33.3373 209.645V230.16H25.644V217.338C25.644 213.089 29.0881 209.645 33.3373 209.645Z" fill="url(#paint2_linear_482_332)"/>
<path d="M25.644 230.159H33.3373C74.4104 230.159 107.706 263.455 107.706 304.528V312.221H84.6258V304.528C84.6258 276.202 61.6627 253.239 33.3373 253.239H25.644V230.159Z" fill="url(#paint3_radial_482_332)"/>
<path d="M87.1899 304.528H107.705V312.222H87.1899V304.528Z" fill="url(#paint4_linear_482_332)"/>
<path d="M25.644 250.675V230.159H33.3373V250.675H25.644Z" fill="url(#paint5_linear_482_332)"/>
<path d="M25.644 263.498C25.644 267.747 29.0881 271.191 33.3373 271.191C51.7486 271.191 66.6748 286.117 66.6748 304.529C66.6748 308.778 70.1189 312.222 74.3681 312.222H87.1902V304.529C87.1902 274.787 63.0795 250.676 33.3373 250.676H25.644V263.498Z" fill="url(#paint6_radial_482_332)"/>
<path d="M66.6753 304.528H87.1907V312.222H74.3686C70.1193 312.222 66.6753 308.778 66.6753 304.528Z" fill="url(#paint7_radial_482_332)"/>
<path d="M33.3373 271.191C29.0881 271.191 25.644 267.747 25.644 263.498V250.676H33.3373V271.191Z" fill="url(#paint8_radial_482_332)"/>
<path d="M184 69.7524C184 45.3367 184 33.1289 188.752 23.8034C192.931 15.6004 199.601 8.93125 207.803 4.75162C217.129 -1.43051e-06 229.336 0 253.752 0H268.113C292.529 0 304.737 -1.43051e-06 314.063 4.75162C322.265 8.93125 328.935 15.6004 333.114 23.8034C337.866 33.1289 337.865 45.3367 337.865 69.7524V84.1131C337.865 108.529 337.866 120.737 333.114 130.063C328.935 138.265 322.265 144.935 314.063 149.114C304.737 153.866 292.529 153.865 268.113 153.865H253.752C229.336 153.865 217.129 153.866 207.803 149.114C199.601 144.935 192.931 138.265 188.752 130.063C184 120.737 184 108.529 184 84.1131V69.7524Z" fill="#0052FF"/>
<path d="M261.108 104.14C246.173 104.14 234.062 92.0441 234.062 77.0933C234.062 62.1425 246.173 50.0467 261.108 50.0467C274.496 50.0467 285.616 59.8135 287.749 72.5856H314.991C312.692 44.8176 289.447 23 261.093 23C231.222 23 207 47.2218 207 77.0933C207 106.965 231.222 131.187 261.093 131.187C289.447 131.187 312.692 109.369 314.991 81.6011H287.734C285.586 94.3732 274.496 104.14 261.108 104.14Z" fill="white"/>
<path d="M184 253.618C184 229.202 184 216.994 188.752 207.669C192.931 199.466 199.601 192.796 207.803 188.617C217.129 183.865 229.336 183.865 253.752 183.865H268.113C292.529 183.865 304.737 183.865 314.063 188.617C322.265 192.796 328.935 199.466 333.114 207.669C337.866 216.994 337.865 229.202 337.865 253.618V267.978C337.865 292.394 337.866 304.602 333.114 313.928C328.935 322.13 322.265 328.8 314.063 332.979C304.737 337.731 292.529 337.731 268.113 337.731H253.752C229.336 337.731 217.129 337.731 207.803 332.979C199.601 328.8 192.931 322.13 188.752 313.928C184 304.602 184 292.394 184 267.978V253.618Z" fill="white"/>
<path d="M312.273 207.865L267.4 241.193L275.698 221.53L312.273 207.865Z" fill="#E2761B" stroke="#E2761B" stroke-linecap="round" stroke-linejoin="round"/>
<path d="M208.683 207.865L253.194 241.508L245.302 221.53L208.683 207.865ZM296.128 285.118L284.177 303.428L309.747 310.463L317.098 285.524L296.128 285.118ZM203.947 285.524L211.253 310.463L236.824 303.428L224.873 285.118L203.947 285.524Z" fill="#E4761B" stroke="#E4761B" stroke-linecap="round" stroke-linejoin="round"/>
<path d="M235.381 254.181L228.256 264.96L253.646 266.087L252.744 238.803L235.381 254.181ZM285.575 254.181L267.987 238.487L267.401 266.087L292.746 264.96L285.575 254.181ZM236.824 303.428L252.068 295.987L238.899 285.705L236.824 303.428ZM268.889 295.987L284.177 303.428L282.058 285.705L268.889 295.987Z" fill="#E4761B" stroke="#E4761B" stroke-linecap="round" stroke-linejoin="round"/>
<path d="M284.176 303.428L268.888 295.987L270.106 305.954L269.97 310.148L284.176 303.428ZM236.823 303.428L251.029 310.148L250.939 305.954L252.066 295.987L236.823 303.428Z" fill="#D7C1B3" stroke="#D7C1B3" stroke-linecap="round" stroke-linejoin="round"/>
<path d="M251.255 279.12L238.537 275.376L247.512 271.272L251.255 279.12ZM269.7 279.12L273.443 271.272L282.463 275.376L269.7 279.12Z" fill="#233447" stroke="#233447" stroke-linecap="round" stroke-linejoin="round"/>
<path d="M236.823 303.428L238.988 285.118L224.872 285.524L236.823 303.428ZM282.011 285.118L284.176 303.428L296.127 285.524L282.011 285.118ZM292.745 264.959L267.4 266.086L269.745 279.12L273.488 271.273L282.507 275.377L292.745 264.959ZM238.537 275.377L247.556 271.273L251.254 279.12L253.645 266.086L228.254 264.959L238.537 275.377Z" fill="#CD6116" stroke="#CD6116" stroke-linecap="round" stroke-linejoin="round"/>
<path d="M228.256 264.959L238.899 285.704L238.538 275.377L228.256 264.959ZM282.509 275.377L282.058 285.704L292.746 264.959L282.509 275.377ZM253.646 266.086L251.256 279.12L254.232 294.498L254.909 274.249L253.646 266.086ZM267.401 266.086L266.183 274.204L266.724 294.498L269.746 279.12L267.401 266.086Z" fill="#E4751F" stroke="#E4751F" stroke-linecap="round" stroke-linejoin="round"/>
<path d="M269.745 279.12L266.723 294.499L268.888 295.987L282.057 285.704L282.508 275.377L269.745 279.12ZM238.537 275.377L238.898 285.704L252.067 295.987L254.231 294.499L251.255 279.12L238.537 275.377Z" fill="#F6851B" stroke="#F6851B" stroke-linecap="round" stroke-linejoin="round"/>
<path d="M269.97 310.147L270.106 305.953L268.978 304.961H251.976L250.939 305.953L251.029 310.147L236.823 303.428L241.784 307.487L251.841 314.477H269.113L279.215 307.487L284.176 303.428L269.97 310.147Z" fill="#C0AD9E" stroke="#C0AD9E" stroke-linecap="round" stroke-linejoin="round"/>
<path d="M268.888 295.987L266.724 294.499H254.232L252.067 295.987L250.939 305.954L251.977 304.962H268.979L270.106 305.954L268.888 295.987Z" fill="#161616" stroke="#161616" stroke-linecap="round" stroke-linejoin="round"/>
<path d="M314.167 243.357L318 224.957L312.273 207.865L268.888 240.065L285.575 254.181L309.161 261.081L314.392 254.993L312.137 253.369L315.745 250.077L312.949 247.912L316.557 245.161L314.167 243.357ZM203 224.957L206.833 243.357L204.398 245.161L208.006 247.912L205.255 250.077L208.863 253.369L206.608 254.993L211.794 261.081L235.38 254.181L252.067 240.065L208.682 207.865L203 224.957Z" fill="#763D16" stroke="#763D16" stroke-linecap="round" stroke-linejoin="round"/>
<path d="M309.161 261.081L285.575 254.181L292.745 264.96L282.057 285.705L296.128 285.524H317.098L309.161 261.081ZM235.381 254.181L211.794 261.081L203.947 285.524H224.873L238.898 285.705L228.255 264.96L235.381 254.181ZM267.4 266.087L268.888 240.066L275.743 221.53H245.302L252.067 240.066L253.645 266.087L254.186 274.295L254.232 294.499H266.724L266.814 274.295L267.4 266.087Z" fill="#F6851B" stroke="#F6851B" stroke-linecap="round" stroke-linejoin="round"/>
<path d="M0 69.7524C0 45.3367 -8.10623e-06 33.1289 4.75187 23.8034C8.9306 15.6004 15.6007 8.93125 23.803 4.75162C33.1285 -1.43051e-06 45.3365 0 69.7523 0H84.1131C108.529 0 120.737 -1.43051e-06 130.063 4.75162C138.265 8.93125 144.935 15.6004 149.114 23.8034C153.866 33.1289 153.865 45.3367 153.865 69.7524V84.1131C153.865 108.529 153.866 120.737 149.114 130.063C144.935 138.265 138.265 144.935 130.063 149.114C120.737 153.866 108.529 153.865 84.1131 153.865H69.7523C45.3365 153.865 33.1285 153.866 23.803 149.114C15.6007 144.935 8.9306 138.265 4.75187 130.063C-8.10623e-06 120.737 0 108.529 0 84.1131V69.7524Z" fill="white"/>
<g clip-path="url(#clip0_482_332)">
<path d="M130.571 54.4394L126.716 43.97L129.402 37.9638C129.57 37.5848 129.62 37.164 129.546 36.7561C129.472 36.3481 129.277 35.9719 128.987 35.6761L121.689 28.3075C120.125 26.7193 118.141 25.6085 115.97 25.1044C113.799 24.6004 111.529 24.7239 109.425 25.4606L107.425 26.1662L96.2918 14.105L77.2868 14L58.2794 14.1489L47.1581 26.3079L45.178 25.6071C43.0607 24.8624 40.7749 24.737 38.5889 25.2455C36.4028 25.7541 34.4071 26.8756 32.836 28.4784L25.3722 35.9862C25.1397 36.2214 24.9836 36.5214 24.9244 36.8468C24.8651 37.1722 24.9055 37.5079 25.0401 37.81L27.8406 44.0506L24 54.5102L37.7874 106.935C39.0907 111.888 42.0885 116.227 46.2596 119.199L73.5268 137.679C74.5973 138.535 75.9272 139.002 77.2978 139.002C78.6684 139.002 79.9983 138.535 81.0688 137.679L108.321 119.172C112.5 116.211 115.496 111.866 116.779 106.908L128.027 63.9028L130.571 54.4394Z" fill="url(#paint9_linear_482_332)"/>
<path d="M80.3996 91.4782C79.679 91.1551 78.9356 90.8858 78.1753 90.6724H76.8349C76.0748 90.8862 75.3314 91.1555 74.6106 91.4782L71.2389 92.8796L67.4301 94.6326L61.2285 97.8653C61.0012 97.9361 60.8006 98.074 60.653 98.2608C60.5054 98.4476 60.4177 98.6747 60.4014 98.9122C60.385 99.1497 60.4408 99.3866 60.5613 99.5919C60.6819 99.7972 60.8617 99.9613 61.0771 100.063L66.4632 103.845C67.6026 104.658 68.7054 105.534 69.7715 106.472L71.2877 107.778L74.4617 110.554L75.8998 111.824C76.3443 112.192 76.9035 112.393 77.4807 112.393C78.0579 112.393 78.6171 112.192 79.0616 111.824L85.2607 106.408L88.5812 103.779L93.9673 99.9235C94.1809 99.8217 94.3588 99.6577 94.4774 99.453C94.596 99.2482 94.6499 99.0123 94.632 98.7764C94.614 98.5404 94.525 98.3154 94.3767 98.131C94.2285 97.9466 94.0278 97.8114 93.8012 97.7432L87.6095 94.618L83.7787 92.8625L80.3996 91.4782ZM118.585 56.7764L118.781 56.2149C118.791 55.4653 118.744 54.7161 118.642 53.9735C118.127 52.6419 117.456 51.3764 116.642 50.2038L113.138 45.0619L110.643 41.673L105.948 35.8133C105.519 35.2417 105.054 34.6978 104.556 34.1848H104.459L102.374 34.5705L92.0531 36.5579C91.0092 36.606 89.9657 36.4535 88.9792 36.1087L83.3123 34.2775L79.2569 33.1569C78.0662 33.0323 76.8658 33.0323 75.6752 33.1569L71.61 34.2897L65.9431 36.1307C64.9561 36.4732 63.913 36.6256 62.8692 36.5799L52.561 34.6267L50.4759 34.2409H50.3783C49.8787 34.7522 49.4137 35.2962 48.9866 35.8694L44.2988 41.7291C43.4313 42.8278 42.606 43.9575 41.8231 45.118L38.3097 50.2599L36.6543 53.0213C36.3528 54.082 36.1935 55.1781 36.1807 56.2808L36.376 56.8423C36.4593 57.2022 36.5661 57.5562 36.6958 57.902L39.4621 61.076L51.726 74.1114C52.1337 74.5858 52.4066 75.161 52.5161 75.7769C52.6256 76.3927 52.5678 77.0267 52.3486 77.6126L50.2904 82.3639C49.8355 83.6212 49.8021 84.9923 50.1952 86.2703L50.5956 87.3739C51.2545 89.1664 52.3838 90.7485 53.8648 91.9543L55.7912 93.5242C56.2926 93.8836 56.8766 94.1105 57.4891 94.1839C58.1016 94.2574 58.7227 94.1749 59.2948 93.9441L66.1458 90.6651C67.4065 90.0402 68.5856 89.2629 69.6567 88.3505L75.1405 83.4015C75.3605 83.2051 75.5388 82.9664 75.6646 82.6996C75.7905 82.4328 75.8613 82.1434 75.8729 81.8487C75.8826 81.5546 75.8336 81.2615 75.7288 80.9865C75.624 80.7115 75.4655 80.4601 75.2625 80.247L62.8692 71.9091C62.4003 71.5767 62.0663 71.0871 61.9279 70.5293C61.7894 69.9715 61.8557 69.3825 62.1148 68.8694L66.9149 59.8479C67.1888 59.2961 67.3513 58.6959 67.3932 58.0813C67.4351 57.4667 67.3555 56.8499 67.159 56.2661C66.5615 55.1519 65.5959 54.2795 64.4269 53.7977L49.3772 48.1333C48.2932 47.7427 48.3518 47.2544 49.5018 47.186L58.3402 46.3095C59.7262 46.2209 61.1176 46.3444 62.4664 46.6757L70.1573 48.8243C70.7032 48.9886 71.171 49.3455 71.4737 49.8287C71.7763 50.3118 71.8933 50.8885 71.8029 51.4514L68.7827 67.9587C68.5795 68.8727 68.5292 69.8141 68.6337 70.7445C68.7558 71.1376 69.7886 71.6235 70.919 71.8994L75.6044 72.876C76.965 73.1275 78.3602 73.1275 79.7208 72.876L83.9349 71.8994C85.0678 71.6552 86.0884 71.1108 86.2178 70.7152C86.3195 69.7853 86.2675 68.8449 86.064 67.9319L83.0242 51.4294C82.9349 50.8666 83.0523 50.2905 83.3548 49.8075C83.6573 49.3246 84.1244 48.9675 84.6698 48.8023L92.3607 46.6464C93.7095 46.315 95.1009 46.1915 96.4869 46.2802L105.325 47.103C106.483 47.2104 106.546 47.6401 105.457 48.0503L90.4099 53.7465C89.2401 54.2252 88.2757 55.0997 87.6851 56.2173C87.2907 57.3967 87.3785 58.6841 87.9293 59.7991L92.7367 68.8206C92.9968 69.334 93.064 69.9237 92.926 70.4825C92.788 71.0413 92.454 71.5319 91.9847 71.8652L79.6158 80.2226C79.4149 80.432 79.2574 80.6791 79.1525 80.9497C79.0476 81.2203 78.9974 81.5089 79.0046 81.799C79.0119 82.0892 79.0765 82.375 79.1949 82.6399C79.3132 82.9049 79.4828 83.1438 79.694 83.3429L79.7306 83.3771L85.2216 88.3261C86.2922 89.235 87.4686 90.0114 88.7252 90.6383L95.5762 93.8977C96.1483 94.1292 96.7699 94.2111 97.3824 94.136C97.995 94.0608 98.5783 93.8309 99.0774 93.468L101.006 91.8932C102.488 90.6849 103.617 89.0992 104.273 87.3031L104.676 86.1995C105.068 84.9214 105.035 83.5505 104.581 82.293L102.564 77.5345C102.347 76.9479 102.29 76.314 102.399 75.6981C102.509 75.0822 102.78 74.5067 103.187 74.0308L115.45 60.9808L118.209 57.8068C118.356 57.4699 118.482 57.1242 118.585 56.7715V56.7764Z" fill="white"/>
</g>
<defs>
<linearGradient id="paint0_linear_482_332" x1="76.9327" y1="184" x2="76.9327" y2="337.865" gradientUnits="userSpaceOnUse">
<stop stop-color="#174299"/>
<stop offset="1" stop-color="#001E59"/>
</linearGradient>
<radialGradient id="paint1_radial_482_332" cx="0" cy="0" r="1" gradientUnits="userSpaceOnUse" gradientTransform="translate(33.3373 304.528) rotate(-90) scale(94.8837)">
<stop offset="0.770277" stop-color="#FF4000"/>
<stop offset="1" stop-color="#8754C9"/>
</radialGradient>
<linearGradient id="paint2_linear_482_332" x1="29.4907" y1="209.645" x2="29.4907" y2="231.442" gradientUnits="userSpaceOnUse">
<stop stop-color="#8754C9"/>
<stop offset="1" stop-color="#FF4000"/>
</linearGradient>
<radialGradient id="paint3_radial_482_332" cx="0" cy="0" r="1" gradientUnits="userSpaceOnUse" gradientTransform="translate(33.3373 304.528) rotate(-90) scale(74.3683 74.3683)">
<stop offset="0.723929" stop-color="#FFF700"/>
<stop offset="1" stop-color="#FF9901"/>
</radialGradient>
<linearGradient id="paint4_linear_482_332" x1="87.1899" y1="308.375" x2="107.705" y2="308.375" gradientUnits="userSpaceOnUse">
<stop stop-color="#FFF700"/>
<stop offset="1" stop-color="#FF9901"/>
</linearGradient>
<linearGradient id="paint5_linear_482_332" x1="29.4907" y1="250.675" x2="29.4907" y2="230.159" gradientUnits="userSpaceOnUse">
<stop stop-color="#FFF700"/>
<stop offset="1" stop-color="#FF9901"/>
</linearGradient>
<radialGradient id="paint6_radial_482_332" cx="0" cy="0" r="1" gradientUnits="userSpaceOnUse" gradientTransform="translate(33.3373 304.529) rotate(-90) scale(53.8529)">
<stop offset="0.59513" stop-color="#00AAFF"/>
<stop offset="1" stop-color="#01DA40"/>
</radialGradient>
<radialGradient id="paint7_radial_482_332" cx="0" cy="0" r="1" gradientUnits="userSpaceOnUse" gradientTransform="translate(65.3931 308.375) scale(21.7976 58.1269)">
<stop stop-color="#00AAFF"/>
<stop offset="1" stop-color="#01DA40"/>
</radialGradient>
<radialGradient id="paint8_radial_482_332" cx="0" cy="0" r="1" gradientUnits="userSpaceOnUse" gradientTransform="translate(29.4907 272.473) rotate(-90) scale(21.7976 413.347)">
<stop stop-color="#00AAFF"/>
<stop offset="1" stop-color="#01DA40"/>
</radialGradient>
<linearGradient id="paint9_linear_482_332" x1="23.9928" y1="76.3385" x2="130.658" y2="76.3385" gradientUnits="userSpaceOnUse">
<stop stop-color="#F1562B"/>
<stop offset="0.3" stop-color="#F1542B"/>
<stop offset="0.41" stop-color="#F04D2A"/>
<stop offset="0.49" stop-color="#EF4229"/>
<stop offset="0.5" stop-color="#EF4029"/>
<stop offset="0.56" stop-color="#E83E28"/>
<stop offset="0.67" stop-color="#E13C26"/>
<stop offset="1" stop-color="#DF3C26"/>
</linearGradient>
<clipPath id="clip0_482_332">
<rect width="106.571" height="125" fill="white" transform="translate(24 14)"/>
</clipPath>
</defs>
</svg>
