<svg width="80" height="80" viewBox="0 0 80 80" fill="none" xmlns="http://www.w3.org/2000/svg">
<g clip-path="url(#clip0_466_242)">
<path d="M40 80C62.0914 80 80 62.0914 80 40C80 17.9086 62.0914 0 40 0C17.9086 0 0 17.9086 0 40C0 62.0914 17.9086 80 40 80Z" fill="#7B3FE4"/>
<path d="M66.6663 40.934V53.0014C66.662 53.754 66.4632 54.4925 66.0892 55.1448C65.7153 55.7971 65.1791 56.3408 64.533 56.7229L54.1163 62.7441C53.4712 63.13 52.7341 63.3337 51.983 63.3337C51.2319 63.3337 50.4948 63.13 49.8497 62.7441L39.433 56.7229C38.7869 56.3408 38.2507 55.7971 37.8768 55.1448C37.5029 54.4925 37.304 53.754 37.2997 53.0014V49.6145L42.633 46.5078V52.3951L51.9663 57.8309L61.2997 52.3951V41.5486L51.9663 36.1128L30.0997 48.8242C29.4485 49.1924 28.7137 49.3859 27.9663 49.3859C27.2189 49.3859 26.4842 49.1924 25.833 48.8242L15.4163 42.778C14.7802 42.3901 14.2543 41.8443 13.8894 41.1932C13.5245 40.5421 13.3329 39.8077 13.333 39.0607V26.9932C13.3373 26.2407 13.5362 25.5022 13.9101 24.8499C14.2841 24.1976 14.8203 23.6538 15.4663 23.2718L25.883 17.2506C26.5295 16.8685 27.2661 16.667 28.0163 16.667C28.7666 16.667 29.5032 16.8685 30.1497 17.2506L40.5663 23.2718C41.2124 23.6538 41.7486 24.1976 42.1225 24.8499C42.4965 25.5022 42.6953 26.2407 42.6997 26.9932V30.3801L37.333 33.466V27.6121L27.9997 22.1763L18.6663 27.6121V38.446L27.9997 43.8818L49.8663 31.1704C50.5175 30.8022 51.2523 30.6088 51.9997 30.6088C52.7471 30.6088 53.4818 30.8022 54.133 31.1704L64.5497 37.2167C65.192 37.6005 65.7245 38.1445 66.0954 38.7958C66.4663 39.4472 66.663 40.1838 66.6663 40.934Z" fill="white"/>
</g>
<defs>
<clipPath id="clip0_466_242">
<rect width="80" height="80" fill="white"/>
</clipPath>
</defs>
</svg>
