<svg width="80" height="80" viewBox="0 0 80 80" fill="none" xmlns="http://www.w3.org/2000/svg">
<path d="M40 80C62.0914 80 80 62.0914 80 40C80 17.9086 62.0914 0 40 0C17.9086 0 0 17.9086 0 40C0 62.0914 17.9086 80 40 80Z" fill="#FF0420"/>
<path d="M28.3413 50.6315C25.9595 50.6315 24.0082 50.071 22.487 48.9502C20.9859 47.8094 20.2354 46.1883 20.2354 44.0867C20.2354 43.6463 20.2854 43.1059 20.3854 42.4654C20.6458 41.0244 21.016 39.2931 21.4963 37.2716C22.8573 31.7676 26.3699 29.0156 32.0341 29.0156C33.5752 29.0156 34.9562 29.2758 36.1771 29.7961C37.3981 30.2964 38.3587 31.0571 39.0592 32.0779C39.7597 33.0785 40.1101 34.2795 40.1101 35.6804C40.1101 36.1007 40.06 36.6311 39.9598 37.2716C39.6597 39.0529 39.2994 40.7843 38.879 42.4654C38.1786 45.2075 36.9677 47.259 35.2464 48.6199C33.5251 49.9609 31.2235 50.6315 28.3413 50.6315ZM28.7616 46.3083C29.8826 46.3083 30.8331 45.978 31.6138 45.3175C32.4144 44.6571 32.9848 43.6463 33.325 42.2854C33.7853 40.4039 34.1357 38.7627 34.3758 37.3617C34.4558 36.9414 34.4958 36.5111 34.4958 36.0707C34.4958 34.2494 33.5451 33.3387 31.6438 33.3387C30.5229 33.3387 29.5622 33.6689 28.7616 34.3294C27.9811 34.99 27.4206 36.0007 27.0805 37.3617C26.7202 38.7027 26.3598 40.3439 25.9997 42.2854C25.9195 42.6855 25.8795 43.1059 25.8795 43.5462C25.8795 45.3876 26.8403 46.3083 28.7616 46.3083Z" fill="white"/>
<path d="M41.4887 50.3309C41.2686 50.3309 41.0983 50.2609 40.9783 50.1207C40.8782 49.9605 40.8482 49.7805 40.8882 49.5804L45.0313 30.066C45.0713 29.8458 45.1814 29.6657 45.3615 29.5255C45.5417 29.3855 45.7318 29.3154 45.9319 29.3154H53.9178C56.1394 29.3154 57.9207 29.7757 59.2617 30.6964C60.6228 31.6172 61.3033 32.9481 61.3033 34.6893C61.3033 35.1897 61.2433 35.7101 61.1231 36.2505C60.6228 38.5522 59.6121 40.2535 58.091 41.3543C56.5898 42.4551 54.5282 43.0055 51.9063 43.0055H47.8534L46.4724 49.5804C46.4322 49.8005 46.3222 49.9805 46.1422 50.1207C45.962 50.2609 45.7718 50.3309 45.5718 50.3309H41.4887ZM52.1166 38.8625C52.957 38.8625 53.6876 38.6322 54.3081 38.1719C54.9486 37.7116 55.3689 37.0511 55.569 36.1905C55.629 35.8501 55.6591 35.55 55.6591 35.2898C55.6591 34.7093 55.489 34.269 55.1487 33.9689C54.8084 33.6485 54.2281 33.4885 53.4074 33.4885H49.8047L48.6639 38.8625H52.1166Z" fill="white"/>
</svg>
