<svg width="1215" height="288" viewBox="0 0 1215 288" fill="none" xmlns="http://www.w3.org/2000/svg">
<path fill-rule="evenodd" clip-rule="evenodd" d="M31 0C13.8792 0 0 13.8792 0 31V257C0 274.121 13.8792 288 31 288H230C247.121 288 261 274.121 261 257V31C261 13.8792 247.121 0 230 0H31ZM70 43C61.7157 43 55 49.7157 55 58C55 66.2843 61.7157 73 70 73H190C198.284 73 205 66.2843 205 58C205 49.7157 198.284 43 190 43H70ZM55 111C55 102.716 61.7157 96 70 96H190C198.284 96 205 102.716 205 111C205 119.284 198.284 126 190 126H70C61.7157 126 55 119.284 55 111ZM55 202C55 210.284 61.7157 217 70 217C78.2843 217 85 210.284 85 202V175C85 166.716 78.2843 160 70 160C61.7157 160 55 166.716 55 175V202Z" fill="url(#paint0_linear_314_127)"/>
<path d="M411.068 235V53.1818H438.5V211.385H520.887V235H411.068ZM607.49 237.752C594.706 237.752 583.55 234.822 574.021 228.963C564.492 223.104 557.094 214.906 551.826 204.371C546.559 193.836 543.925 181.526 543.925 167.44C543.925 153.294 546.559 140.924 551.826 130.33C557.094 119.736 564.492 111.509 574.021 105.65C583.55 99.7905 594.706 96.8608 607.49 96.8608C620.274 96.8608 631.431 99.7905 640.96 105.65C650.488 111.509 657.887 119.736 663.154 130.33C668.422 140.924 671.055 153.294 671.055 167.44C671.055 181.526 668.422 193.836 663.154 204.371C657.887 214.906 650.488 223.104 640.96 228.963C631.431 234.822 620.274 237.752 607.49 237.752ZM607.579 215.469C615.865 215.469 622.73 213.279 628.176 208.899C633.621 204.519 637.645 198.69 640.249 191.41C642.913 184.13 644.244 176.11 644.244 167.351C644.244 158.651 642.913 150.661 640.249 143.381C637.645 136.042 633.621 130.153 628.176 125.714C622.73 121.275 615.865 119.055 607.579 119.055C599.234 119.055 592.309 121.275 586.805 125.714C581.36 130.153 577.305 136.042 574.642 143.381C572.038 150.661 570.736 158.651 570.736 167.351C570.736 176.11 572.038 184.13 574.642 191.41C577.305 198.69 581.36 204.519 586.805 208.899C592.309 213.279 599.234 215.469 607.579 215.469ZM758.125 237.752C744.927 237.752 733.563 234.763 724.034 228.786C714.564 222.749 707.284 214.433 702.195 203.839C697.105 193.245 694.56 181.112 694.56 167.44C694.56 153.59 697.164 141.368 702.372 130.774C707.58 120.121 714.919 111.805 724.389 105.827C733.859 99.8497 745.015 96.8608 757.859 96.8608C768.216 96.8608 777.449 98.7843 785.557 102.631C793.666 106.419 800.206 111.746 805.177 118.612C810.208 125.477 813.197 133.497 814.144 142.67H788.31C786.889 136.278 783.634 130.774 778.544 126.158C773.513 121.541 766.766 119.233 758.302 119.233C750.904 119.233 744.423 121.186 738.86 125.092C733.356 128.939 729.065 134.444 725.987 141.605C722.909 148.707 721.371 157.112 721.371 166.818C721.371 176.761 722.88 185.343 725.898 192.564C728.917 199.785 733.178 205.378 738.682 209.343C744.246 213.308 750.786 215.291 758.302 215.291C763.333 215.291 767.891 214.374 771.974 212.539C776.117 210.645 779.58 207.952 782.361 204.46C785.202 200.968 787.185 196.766 788.31 191.854H814.144C813.197 200.672 810.327 208.544 805.533 215.469C800.739 222.393 794.317 227.839 786.268 231.804C778.278 235.769 768.897 237.752 758.125 237.752ZM866.945 188.746L866.767 156.342H871.384L925.716 98.6364H957.499L895.532 164.332H891.359L866.945 188.746ZM842.531 235V53.1818H869.076V235H842.531ZM928.646 235L879.818 170.192L898.106 151.637L961.228 235H928.646ZM1034.85 237.752C1021.41 237.752 1009.84 234.882 1000.13 229.141C990.488 223.34 983.03 215.202 977.763 204.727C972.554 194.192 969.95 181.851 969.95 167.706C969.95 153.738 972.554 141.428 977.763 130.774C983.03 120.121 990.369 111.805 999.78 105.827C1009.25 99.8497 1020.32 96.8608 1032.98 96.8608C1040.68 96.8608 1048.13 98.1333 1055.36 100.678C1062.58 103.223 1069.06 107.218 1074.8 112.663C1080.54 118.108 1085.07 125.181 1088.38 133.881C1091.69 142.522 1093.35 153.028 1093.35 165.398V174.808H984.954V154.922H1067.34C1067.34 147.938 1065.92 141.753 1063.08 136.367C1060.24 130.922 1056.24 126.631 1051.09 123.494C1046 120.357 1040.03 118.789 1033.16 118.789C1025.7 118.789 1019.19 120.624 1013.63 124.293C1008.12 127.904 1003.86 132.638 1000.85 138.498C997.886 144.298 996.406 150.601 996.406 157.408V172.944C996.406 182.058 998.004 189.812 1001.2 196.204C1004.46 202.596 1008.98 207.479 1014.78 210.852C1020.58 214.167 1027.36 215.824 1035.11 215.824C1040.14 215.824 1044.73 215.114 1048.87 213.693C1053.02 212.214 1056.6 210.024 1059.62 207.124C1062.63 204.223 1064.94 200.643 1066.54 196.381L1091.67 200.909C1089.65 208.307 1086.04 214.788 1080.83 220.352C1075.69 225.856 1069.2 230.147 1061.39 233.224C1053.64 236.243 1044.79 237.752 1034.85 237.752ZM1122.8 235V98.6364H1148.46V120.298H1149.88C1152.37 112.959 1156.75 107.189 1163.02 102.987C1169.35 98.7251 1176.52 96.5945 1184.51 96.5945C1186.16 96.5945 1188.12 96.6536 1190.36 96.772C1192.67 96.8904 1194.48 97.0383 1195.78 97.2159V122.607C1194.71 122.311 1192.82 121.985 1190.1 121.63C1187.38 121.216 1184.65 121.009 1181.93 121.009C1175.66 121.009 1170.06 122.34 1165.15 125.004C1160.3 127.608 1156.45 131.248 1153.61 135.923C1150.77 140.54 1149.35 145.807 1149.35 151.726V235H1122.8Z" fill="#101123"/>
<defs>
<linearGradient id="paint0_linear_314_127" x1="130.5" y1="0" x2="130.5" y2="288" gradientUnits="userSpaceOnUse">
<stop stop-color="#5EC8CE"/>
<stop offset="0.5" stop-color="#2D95D0"/>
<stop offset="1" stop-color="#4F46E6"/>
</linearGradient>
</defs>
</svg>
