<svg width="1359" height="889" viewBox="0 0 1359 889" fill="none" xmlns="http://www.w3.org/2000/svg">
<rect width="484" height="443" rx="10" fill="white"/>
<rect y="458" width="1359" height="431" rx="10" fill="white"/>
<rect x="501" width="360" height="443" rx="10" fill="white"/>
<rect x="878" width="481" height="443" rx="10" fill="white"/>
<rect x="17" y="480" width="208" height="28" rx="5" fill="#EFEFEF"/>
<rect x="17" y="527" width="1324" height="161" rx="5" fill="#EFEFEF"/>
<rect x="17" y="707" width="1324" height="161" rx="5" fill="#EFEFEF"/>
<rect x="896" y="31" width="139" height="28" rx="5" fill="#EFEFEF"/>
<rect x="1212" y="23" width="127" height="36" rx="5" fill="#EFEFEF"/>
<rect x="17" y="22" width="158" height="28" rx="5" fill="#EFEFEF"/>
<rect x="17" y="58" width="158" height="37" rx="5" fill="#EFEFEF"/>
<rect x="304" y="12" width="72" height="73" rx="5" fill="#EFEFEF"/>
<rect x="393" y="12" width="72" height="73" rx="5" fill="#EFEFEF"/>
<rect x="7" y="115" width="455" height="47" rx="5" fill="#EFEFEF"/>
<rect x="7" y="182" width="455" height="241" rx="5" fill="#EFEFEF"/>
<rect x="900" y="73" width="437" height="83" rx="5" fill="#EFEFEF"/>
<rect x="900" y="160" width="437" height="83" rx="5" fill="#EFEFEF"/>
<rect x="900" y="247" width="437" height="83" rx="5" fill="#EFEFEF"/>
<rect x="900" y="334" width="437" height="83" rx="5" fill="#EFEFEF"/>
<rect x="512" y="31" width="208" height="28" rx="5" fill="#EFEFEF"/>
<rect x="752" y="23" width="97" height="36" rx="5" fill="#EFEFEF"/>
<circle cx="589.5" cy="151.5" r="77.5" fill="#EFEFEF"/>
<rect x="512" y="244" width="337" height="180" rx="5" fill="#EFEFEF"/>
</svg>
