<?xml version="1.0" standalone="no"?>
<!DOCTYPE svg PUBLIC "-//W3C//DTD SVG 20010904//EN"
 "http://www.w3.org/TR/2001/REC-SVG-20010904/DTD/svg10.dtd">
<svg version="1.0" xmlns="http://www.w3.org/2000/svg"
 width="288.000000pt" height="288.000000pt" viewBox="0 0 288.000000 288.000000"
 preserveAspectRatio="xMidYMid meet">
<metadata>
Created by potrace 1.14, written by Peter Selinger 2001-2017
</metadata>
<g transform="translate(0.000000,288.000000) scale(0.100000,-0.100000)"
fill="#000000" stroke="none">
<path d="M359 2867 c-94 -31 -172 -109 -203 -203 -15 -46 -16 -157 -14 -1245
l3 -1194 27 -50 c33 -64 79 -109 143 -143 l50 -27 1061 -3 1062 -3 58 22 c75
28 140 89 175 164 l29 60 -3 1205 -2 1205 -27 50 c-33 64 -79 109 -143 143
l-50 27 -1065 2 c-783 1 -1075 -2 -1101 -10z m1730 -427 c67 -19 113 -104 96
-179 -8 -40 -66 -97 -105 -105 -61 -12 -1254 -7 -1291 6 -123 42 -130 221 -11
274 34 16 1259 19 1311 4z m13 -536 c88 -45 111 -133 58 -218 -42 -69 -17 -67
-732 -64 l-643 3 -33 25 c-64 47 -78 125 -37 195 45 78 12 75 723 75 562 0
636 -2 664 -16z m-1224 -630 c37 -7 83 -48 100 -87 8 -18 12 -85 12 -191 0
-208 -13 -244 -100 -274 -48 -17 -80 -14 -125 11 -66 37 -74 66 -75 259 0 171
4 197 36 234 40 45 89 60 152 48z"/>
</g>
</svg>
