<svg width="372" height="961" viewBox="0 0 372 961" fill="none" xmlns="http://www.w3.org/2000/svg">
<rect width="372" height="102" rx="8" fill="white"/>
<rect y="114" width="372" height="235" rx="8" fill="white"/>
<rect y="361" width="372" height="191" rx="8" fill="white"/>
<rect y="565" width="372" height="396" rx="8" fill="white"/>
<circle cx="72.5" cy="235.5" r="50.5" fill="#EFEFEF"/>
<rect x="14" y="19" width="139" height="23" rx="5" fill="#EFEFEF"/>
<rect x="18" y="139" width="181" height="23" rx="5" fill="#EFEFEF"/>
<rect x="22" y="389" width="116" height="23" rx="5" fill="#EFEFEF"/>
<rect x="22" y="582" width="336" height="45" rx="5" fill="#EFEFEF"/>
<rect x="22" y="640" width="336" height="310" rx="5" fill="#EFEFEF"/>
<rect x="273" y="380" width="83" height="37" rx="5" fill="#EFEFEF"/>
<rect x="22" y="430" width="334" height="86" rx="5" fill="#EFEFEF"/>
<circle cx="166" cy="530" r="4" fill="#EFEFEF"/>
<circle cx="182" cy="530" r="4" fill="#EFEFEF"/>
<circle cx="198" cy="530" r="4" fill="#EFEFEF"/>
<circle cx="214" cy="530" r="4" fill="#EFEFEF"/>
<rect x="145" y="182" width="213" height="23" rx="5" fill="#EFEFEF"/>
<rect x="145" y="214" width="213" height="23" rx="5" fill="#EFEFEF"/>
<rect x="145" y="246" width="213" height="23" rx="5" fill="#EFEFEF"/>
<rect x="145" y="276" width="111" height="23" rx="5" fill="#EFEFEF"/>
<rect x="145" y="307" width="213" height="23" rx="5" fill="#EFEFEF"/>
<rect x="14" y="48" width="139" height="32" rx="5" fill="#EFEFEF"/>
<rect x="267" y="132" width="89" height="39" rx="5" fill="#EFEFEF"/>
<rect x="214" y="22" width="66" height="60" rx="5" fill="#EFEFEF"/>
<rect x="290" y="22" width="66" height="60" rx="5" fill="#EFEFEF"/>
</svg>
